<svg xmlns="http://www.w3.org/2000/svg" viewBox="0 0 20 21"><g id="Layer_2" data-name="Layer 2"><g id="Layer_1-2" data-name="Layer 1"><g id="Layer_2-2" data-name="Layer 2"><g id="Layer_1-2-2" data-name="Layer 1-2"><path d="M20,19.05a2,2,0,0,0-1.12-1.74,1.35,1.35,0,0,0-2,1,1.1,1.1,0,0,0,1,1.33c.25,0,.42-.11.44-.33s-.11-.35-.36-.37a.32.32,0,0,1-.29-.17.63.63,0,0,1,.37-.85.9.9,0,0,1,.92.26,1.56,1.56,0,0,1,.39,1.41.75.75,0,0,1-.53.62,2.06,2.06,0,0,1-.7.12,5.46,5.46,0,0,1-3.27-1c-.13-.09-.11-.15,0-.26a1.89,1.89,0,0,0,.35-1.28,2.34,2.34,0,0,0-.81-1.49.39.39,0,0,0-.65,0A3.1,3.1,0,0,0,13,17.41l-.11-.17a11.16,11.16,0,0,1-1.27-3.46c0-.13,0-.12.13-.13a5.78,5.78,0,0,0,1.3-.16,3.17,3.17,0,0,0,2.25-1.66A5.24,5.24,0,0,0,15.77,9a.33.33,0,0,0-.35-.31,6.13,6.13,0,0,0-1.86.14,3.12,3.12,0,0,0-2.41,2.08s0,0-.05.05a15.06,15.06,0,0,0-.88-3c0-.11,0-.14.1-.18a5.66,5.66,0,0,0,1.16-.63A3.17,3.17,0,0,0,13,4.37,5.58,5.58,0,0,0,12.3,2a.35.35,0,0,0-.51-.19,5.91,5.91,0,0,0-1.68.85A3.18,3.18,0,0,0,8.8,4.5a3.07,3.07,0,0,0-.07,1.17l-.52-.42A7.14,7.14,0,0,0,4.79,3.87c-.14,0-.16-.05-.15-.19a4.11,4.11,0,0,0,0-.86A2.7,2.7,0,0,0,3,.39,4.79,4.79,0,0,0,1.25,0,.38.38,0,0,0,.8.37,5.76,5.76,0,0,0,.75,1.92,2.7,2.7,0,0,0,2.31,4.13s.11,0,.13.09A3.67,3.67,0,0,0,.31,6.32a4.9,4.9,0,0,0-.24,2.6A3.32,3.32,0,0,0,1,11c.09.09.05.15,0,.23a2,2,0,0,0-.19,1.45,2.36,2.36,0,0,0,1,1.33.35.35,0,0,0,.57-.12,2.4,2.4,0,0,0,.34-2l.23,0a4.74,4.74,0,0,0,1.55-.07A2.11,2.11,0,0,0,6.18,9,1.77,1.77,0,0,0,4.24,7.73,1.61,1.61,0,0,0,2.81,9.48a1.06,1.06,0,0,0,1.55,1,.92.92,0,0,0,.55-.76.34.34,0,0,0-.28-.4h0a.37.37,0,0,0-.4.28.33.33,0,0,1-.39.29c-.19,0-.29-.12-.32-.34a1,1,0,0,1,.55-1,1,1,0,0,1,1.18.26,1.4,1.4,0,0,1-.35,2.19,1.79,1.79,0,0,1-.45.19,3.26,3.26,0,0,1-1.28.07,2.4,2.4,0,0,1-2.33-2A5,5,0,0,1,.72,7.57,3.09,3.09,0,0,1,2.24,5.08,4.27,4.27,0,0,1,4.4,4.55a2.72,2.72,0,0,1,.9.12l-.14.11a2.47,2.47,0,0,0-.93,1.39.35.35,0,0,0,.26.47A2,2,0,0,0,7.14,5.56c.06-.12.11-.09.2,0a5.47,5.47,0,0,1,1,.8A6.62,6.62,0,0,1,9.88,9a8,8,0,0,1,.34,1.25,4.09,4.09,0,0,0-2.8-.4c-.31,0-.4.18-.39.48a4.83,4.83,0,0,0,.18,1.19,2.77,2.77,0,0,0,2.13,2.13,4.11,4.11,0,0,0,1.4.06c.07,0,.18-.08.22.07l.31,1.29a3.31,3.31,0,0,0-1.42-.69,1.94,1.94,0,0,0-2.3,1.11,2.4,2.4,0,0,0-.17,1.21,1.53,1.53,0,0,0,.93,1.32A1.54,1.54,0,0,0,10,17.93a1.18,1.18,0,0,0,.49-1.19,1.15,1.15,0,0,0-.83-.93.36.36,0,0,0-.47.21.35.35,0,0,0,.25.43.48.48,0,0,1,.36.44.56.56,0,0,1-.33.55,1,1,0,0,1-1.22-.39,1.46,1.46,0,0,1,.19-1.55,1.22,1.22,0,0,1,1.27-.42,2.85,2.85,0,0,1,1.61,1,16.2,16.2,0,0,1,1.47,2.17l-.22.05a2.5,2.5,0,0,0-1.42.81.33.33,0,0,0,0,.52,2.09,2.09,0,0,0,2.94.18c.1-.09.15-.08.25,0a6.16,6.16,0,0,0,2.31,1.06,6.22,6.22,0,0,1,.75.15H18a.14.14,0,0,1,.2,0h.13c0-.06.09,0,.15,0a1.61,1.61,0,0,0,1.48-1.16A2.37,2.37,0,0,0,20,19.05ZM1.59,11.62c0-.11.09-.1.17,0A1.27,1.27,0,0,1,2,13.21,1.29,1.29,0,0,1,1.59,11.62Zm2.35-8.4c-.25-.32-.52-.63-.8-.93s-.39-.22-.54-.08a.37.37,0,0,0,0,.56c.25.26.49.54.71.82l.11.15a1.57,1.57,0,0,1-.62-.15,2.08,2.08,0,0,1-1.4-2.2c0-.18,0-.37,0-.55s0-.12.1-.11C3,.89,4,1.56,4,3.17A.11.11,0,0,0,3.94,3.22ZM6.42,5.45a1.26,1.26,0,0,1-1.22.62c-.15,0-.18,0-.11-.18a1.25,1.25,0,0,1,1.2-.72c.07,0,.19,0,.23,0S6.47,5.37,6.42,5.45ZM9.73,6.76a2.71,2.71,0,0,1,.75-3.52,5,5,0,0,1,1.2-.67c.06,0,.12-.07.16,0a4,4,0,0,1,.36,2.47A2.66,2.66,0,0,1,11,6.64c-.16.11-.33.2-.49.3a.22.22,0,0,1,0-.2c.36-.78.71-1.57,1-2.36a.38.38,0,0,0-.1-.48.36.36,0,0,0-.55.2L10,6.17ZM9.3,12.24a12,12,0,0,1,1,.73l.07,0a2.16,2.16,0,0,1-2.24-1.09,4,4,0,0,1-.37-1.27c0-.07,0-.12.08-.13a2.61,2.61,0,0,1,2.42.73,2,2,0,0,1,.39,1.09,10.93,10.93,0,0,0-1-.71.36.36,0,0,0-.55.15q-.1.26.18.45Zm4.12-2.67a4.92,4.92,0,0,1,1.52-.23c.08,0,.16,0,.16.12a4.43,4.43,0,0,1-.38,2,2.68,2.68,0,0,1-1.79,1.35,3,3,0,0,1-.78.11l.3-.28c.56-.54,1.12-1.09,1.66-1.65.22-.22.25-.42.09-.59s-.38-.13-.59.09c-.66.68-1.33,1.34-2,2a2.77,2.77,0,0,1,1.83-2.94Zm-1.54,9.77a1.23,1.23,0,0,1,1.71-.08A1.26,1.26,0,0,1,11.88,19.34Zm2.21-.64a1.27,1.27,0,0,1-.19-1.61c.07-.12.11-.11.19,0A1.28,1.28,0,0,1,14.09,18.7Z" style="fill:#fff"/></g></g></g></g></svg>