<svg xmlns="http://www.w3.org/2000/svg" viewBox="0 0 20 18.92"><g id="Layer_2" data-name="Layer 2"><g id="Layer_1-2" data-name="Layer 1"><g id="Layer_2-2" data-name="Layer 2"><g id="Layer_1-2-2" data-name="Layer 1-2"><path d="M6.91,14.73l-.37,0A2.8,2.8,0,0,1,4,12.3c0-.27,0-.53-.07-.8a.33.33,0,0,0-.31-.32.33.33,0,0,0-.33.3c0,.14,0,.28,0,.42a3.05,3.05,0,0,1-.7,1.83,3,3,0,0,1-2.13,1,.52.52,0,0,0-.45.21v.19a.41.41,0,0,0,.4.25,4.35,4.35,0,0,1,.52.06,2.75,2.75,0,0,1,2.29,2.28c.06.31,0,.61.1.91a.32.32,0,0,0,.35.29h0c.19,0,.22-.15.23-.31s0-.5.07-.76a2.72,2.72,0,0,1,1.74-2.21,3.29,3.29,0,0,1,1.16-.24.33.33,0,0,0,.35-.33C7.24,14.86,7.12,14.75,6.91,14.73ZM3.6,16.83a3.44,3.44,0,0,0-1.78-1.76A3.4,3.4,0,0,0,3.6,13.31a3.38,3.38,0,0,0,1.79,1.76A3.42,3.42,0,0,0,3.6,16.83Z" style="fill:#fff"/><path d="M19.76,10.52a.41.41,0,0,0-.19,0,6.13,6.13,0,0,1-1.74-.31A5,5,0,0,1,14.3,5.94a9.53,9.53,0,0,1-.11-1.32c0-.21-.13-.35-.31-.35a.31.31,0,0,0-.32.28c0,.16,0,.32,0,.48A6.06,6.06,0,0,1,12.73,8,5.15,5.15,0,0,1,9,10.4a6.42,6.42,0,0,1-.87.09.33.33,0,0,0-.35.34c0,.19.13.3.35.32l.39,0a5.73,5.73,0,0,1,3.14,1.19,5.24,5.24,0,0,1,1.88,3.74c0,.29,0,.57.05.86s.13.41.32.41.32-.16.33-.41v-.1a7.47,7.47,0,0,1,.16-1.49,5,5,0,0,1,3.82-4,7.45,7.45,0,0,1,1.48-.22.32.32,0,0,0,.32-.27A.32.32,0,0,0,19.76,10.52Zm-5.89,4.11A5.69,5.69,0,0,0,10,10.81,5.7,5.7,0,0,0,13.87,7a5.67,5.67,0,0,0,3.87,3.82,5.68,5.68,0,0,0-3.87,3.83Z" style="fill:#fff"/><path d="M9.73,3.53a4.07,4.07,0,0,1-.49,0A2.72,2.72,0,0,1,7,1.59,4.65,4.65,0,0,1,6.8.36.33.33,0,0,0,6.45,0a.32.32,0,0,0-.29.29c0,.25,0,.5-.06.75A2.78,2.78,0,0,1,4.55,3.22a3.6,3.6,0,0,1-1.33.32c-.23,0-.37.14-.37.32s.15.31.38.33l.41,0a2.76,2.76,0,0,1,2.42,2.3c.06.3.05.61.1.91a.31.31,0,0,0,.33.29.3.3,0,0,0,.28-.3c0-.25,0-.51.06-.76a2.82,2.82,0,0,1,1.29-2,3.37,3.37,0,0,1,1.6-.46c.24,0,.37-.13.37-.33S10,3.56,9.73,3.53ZM6.45,5.62A3.37,3.37,0,0,0,4.67,3.86,3.4,3.4,0,0,0,6.45,2.1,3.38,3.38,0,0,0,8.24,3.86,3.42,3.42,0,0,0,6.45,5.62Z" style="fill:#fff"/></g></g></g></g></svg>